solid ascii
  facet normal -7.071068e-001 -7.071068e-001 0.000000e+000
    outer loop
      vertex   1.945000e+001 1.900000e+000 0.000000e+000
      vertex   1.945000e+001 1.900000e+000 1.100000e+002
      vertex   1.770000e+001 3.650000e+000 0.000000e+000
    endloop
  endfacet
  facet normal -7.071068e-001 -7.071068e-001 0.000000e+000
    outer loop
      vertex   1.770000e+001 3.650000e+000 0.000000e+000
      vertex   1.945000e+001 1.900000e+000 1.100000e+002
      vertex   1.770000e+001 3.650000e+000 1.100000e+002
    endloop
  endfacet
  facet normal 0.000000e+000 0.000000e+000 -1.000000e+000
    outer loop
      vertex   1.945000e+001 -2.381938e-015 0.000000e+000
      vertex   1.945000e+001 1.900000e+000 0.000000e+000
      vertex   2.195000e+001 6.088653e+000 0.000000e+000
    endloop
  endfacet
  facet normal 0.000000e+000 0.000000e+000 -1.000000e+000
    outer loop
      vertex   2.195000e+001 -7.500000e+000 0.000000e+000
      vertex   1.945000e+001 -2.381938e-015 0.000000e+000
      vertex   2.195000e+001 6.088653e+000 0.000000e+000
    endloop
  endfacet
  facet normal 0.000000e+000 0.000000e+000 -1.000000e+000
    outer loop
      vertex   2.195000e+001 -7.500000e+000 0.000000e+000
      vertex   1.770000e+001 -6.000000e+000 0.000000e+000
      vertex   1.945000e+001 -2.381938e-015 0.000000e+000
    endloop
  endfacet
  facet normal 0.000000e+000 0.000000e+000 -1.000000e+000
    outer loop
      vertex   2.195000e+001 -7.500000e+000 0.000000e+000
      vertex   -2.195000e+001 -7.500000e+000 0.000000e+000
      vertex   1.770000e+001 -6.000000e+000 0.000000e+000
    endloop
  endfacet
  facet normal -0.000000e+000 0.000000e+000 -1.000000e+000
    outer loop
      vertex   1.770000e+001 -6.000000e+000 0.000000e+000
      vertex   -2.195000e+001 -7.500000e+000 0.000000e+000
      vertex   -1.770000e+001 -6.000000e+000 0.000000e+000
    endloop
  endfacet
  facet normal -0.000000e+000 0.000000e+000 -1.000000e+000
    outer loop
      vertex   -1.770000e+001 -6.000000e+000 0.000000e+000
      vertex   -2.195000e+001 -7.500000e+000 0.000000e+000
      vertex   -1.945000e+001 -2.381938e-015 0.000000e+000
    endloop
  endfacet
  facet normal -0.000000e+000 -0.000000e+000 -1.000000e+000
    outer loop
      vertex   -1.770000e+001 -2.220446e-015 0.000000e+000
      vertex   -1.770000e+001 -6.000000e+000 0.000000e+000
      vertex   -1.945000e+001 -2.381938e-015 0.000000e+000
    endloop
  endfacet
  facet normal 0.000000e+000 -0.000000e+000 -1.000000e+000
    outer loop
      vertex   1.770000e+001 6.088653e+000 0.000000e+000
      vertex   2.195000e+001 6.088653e+000 0.000000e+000
      vertex   1.770000e+001 3.650000e+000 0.000000e+000
    endloop
  endfacet
  facet normal 0.000000e+000 -0.000000e+000 -1.000000e+000
    outer loop
      vertex   1.770000e+001 3.650000e+000 0.000000e+000
      vertex   2.195000e+001 6.088653e+000 0.000000e+000
      vertex   1.945000e+001 1.900000e+000 0.000000e+000
    endloop
  endfacet
  facet normal 0.000000e+000 0.000000e+000 -1.000000e+000
    outer loop
      vertex   -2.195000e+001 -7.500000e+000 0.000000e+000
      vertex   -2.195000e+001 6.088653e+000 0.000000e+000
      vertex   -1.945000e+001 -2.381938e-015 0.000000e+000
    endloop
  endfacet
  facet normal 0.000000e+000 0.000000e+000 -1.000000e+000
    outer loop
      vertex   -1.945000e+001 -2.381938e-015 0.000000e+000
      vertex   -2.195000e+001 6.088653e+000 0.000000e+000
      vertex   -1.945000e+001 1.900000e+000 0.000000e+000
    endloop
  endfacet
  facet normal 0.000000e+000 0.000000e+000 -1.000000e+000
    outer loop
      vertex   -1.945000e+001 1.900000e+000 0.000000e+000
      vertex   -2.195000e+001 6.088653e+000 0.000000e+000
      vertex   -1.770000e+001 3.650000e+000 0.000000e+000
    endloop
  endfacet
  facet normal 0.000000e+000 0.000000e+000 -1.000000e+000
    outer loop
      vertex   -1.770000e+001 3.650000e+000 0.000000e+000
      vertex   -2.195000e+001 6.088653e+000 0.000000e+000
      vertex   -1.770000e+001 6.088653e+000 0.000000e+000
    endloop
  endfacet
  facet normal 0.000000e+000 0.000000e+000 -1.000000e+000
    outer loop
      vertex   1.770000e+001 -6.000000e+000 0.000000e+000
      vertex   1.770000e+001 -2.220446e-015 0.000000e+000
      vertex   1.945000e+001 -2.381938e-015 0.000000e+000
    endloop
  endfacet
  facet normal 7.071068e-001 -7.071068e-001 0.000000e+000
    outer loop
      vertex   -1.945000e+001 1.900000e+000 1.100000e+002
      vertex   -1.945000e+001 1.900000e+000 0.000000e+000
      vertex   -1.770000e+001 3.650000e+000 1.100000e+002
    endloop
  endfacet
  facet normal 7.071068e-001 -7.071068e-001 0.000000e+000
    outer loop
      vertex   -1.770000e+001 3.650000e+000 1.100000e+002
      vertex   -1.945000e+001 1.900000e+000 0.000000e+000
      vertex   -1.770000e+001 3.650000e+000 0.000000e+000
    endloop
  endfacet
  facet normal -1.000000e+000 1.456835e-015 0.000000e+000
    outer loop
      vertex   1.770000e+001 3.650000e+000 0.000000e+000
      vertex   1.770000e+001 3.650000e+000 1.100000e+002
      vertex   1.770000e+001 6.088653e+000 0.000000e+000
    endloop
  endfacet
  facet normal -1.000000e+000 1.456835e-015 0.000000e+000
    outer loop
      vertex   1.770000e+001 6.088653e+000 0.000000e+000
      vertex   1.770000e+001 3.650000e+000 1.100000e+002
      vertex   1.770000e+001 6.088653e+000 1.100000e+002
    endloop
  endfacet
  facet normal 1.000000e+000 1.456835e-015 0.000000e+000
    outer loop
      vertex   -1.770000e+001 3.650000e+000 1.100000e+002
      vertex   -1.770000e+001 3.650000e+000 0.000000e+000
      vertex   -1.770000e+001 6.088653e+000 1.100000e+002
    endloop
  endfacet
  facet normal 1.000000e+000 1.456835e-015 0.000000e+000
    outer loop
      vertex   -1.770000e+001 6.088653e+000 1.100000e+002
      vertex   -1.770000e+001 3.650000e+000 0.000000e+000
      vertex   -1.770000e+001 6.088653e+000 0.000000e+000
    endloop
  endfacet
  facet normal -1.000000e+000 -0.000000e+000 -0.000000e+000
    outer loop
      vertex   1.770000e+001 -2.220446e-015 1.100000e+002
      vertex   1.770000e+001 -2.220446e-015 0.000000e+000
      vertex   1.770000e+001 -6.000000e+000 1.100000e+002
    endloop
  endfacet
  facet normal -1.000000e+000 -0.000000e+000 -0.000000e+000
    outer loop
      vertex   1.770000e+001 -6.000000e+000 1.100000e+002
      vertex   1.770000e+001 -2.220446e-015 0.000000e+000
      vertex   1.770000e+001 -6.000000e+000 0.000000e+000
    endloop
  endfacet
  facet normal 0.000000e+000 1.000000e+000 0.000000e+000
    outer loop
      vertex   1.770000e+001 -6.000000e+000 1.100000e+002
      vertex   1.770000e+001 -6.000000e+000 0.000000e+000
      vertex   -1.770000e+001 -6.000000e+000 1.100000e+002
    endloop
  endfacet
  facet normal 0.000000e+000 1.000000e+000 0.000000e+000
    outer loop
      vertex   -1.770000e+001 -6.000000e+000 1.100000e+002
      vertex   1.770000e+001 -6.000000e+000 0.000000e+000
      vertex   -1.770000e+001 -6.000000e+000 0.000000e+000
    endloop
  endfacet
  facet normal 1.000000e+000 0.000000e+000 -0.000000e+000
    outer loop
      vertex   -1.770000e+001 -2.220446e-015 0.000000e+000
      vertex   -1.770000e+001 -2.220446e-015 1.100000e+002
      vertex   -1.770000e+001 -6.000000e+000 0.000000e+000
    endloop
  endfacet
  facet normal 1.000000e+000 0.000000e+000 -0.000000e+000
    outer loop
      vertex   -1.770000e+001 -6.000000e+000 0.000000e+000
      vertex   -1.770000e+001 -2.220446e-015 1.100000e+002
      vertex   -1.770000e+001 -6.000000e+000 1.100000e+002
    endloop
  endfacet
  facet normal -9.228113e-017 1.000000e+000 0.000000e+000
    outer loop
      vertex   -1.770000e+001 -2.220446e-015 1.100000e+002
      vertex   -1.770000e+001 -2.220446e-015 0.000000e+000
      vertex   -1.945000e+001 -2.381938e-015 1.100000e+002
    endloop
  endfacet
  facet normal -9.228113e-017 1.000000e+000 0.000000e+000
    outer loop
      vertex   -1.945000e+001 -2.381938e-015 1.100000e+002
      vertex   -1.770000e+001 -2.220446e-015 0.000000e+000
      vertex   -1.945000e+001 -2.381938e-015 0.000000e+000
    endloop
  endfacet
  facet normal -0.000000e+000 0.000000e+000 1.000000e+000
    outer loop
      vertex   1.770000e+001 6.088653e+000 1.100000e+002
      vertex   1.770000e+001 3.650000e+000 1.100000e+002
      vertex   2.195000e+001 6.088653e+000 1.100000e+002
    endloop
  endfacet
  facet normal 0.000000e+000 0.000000e+000 1.000000e+000
    outer loop
      vertex   2.195000e+001 6.088653e+000 1.100000e+002
      vertex   1.770000e+001 3.650000e+000 1.100000e+002
      vertex   1.945000e+001 1.900000e+000 1.100000e+002
    endloop
  endfacet
  facet normal 0.000000e+000 -0.000000e+000 1.000000e+000
    outer loop
      vertex   1.945000e+001 -2.381938e-015 1.100000e+002
      vertex   2.195000e+001 6.088653e+000 1.100000e+002
      vertex   1.945000e+001 1.900000e+000 1.100000e+002
    endloop
  endfacet
  facet normal -0.000000e+000 0.000000e+000 1.000000e+000
    outer loop
      vertex   1.945000e+001 -2.381938e-015 1.100000e+002
      vertex   2.195000e+001 -7.500000e+000 1.100000e+002
      vertex   2.195000e+001 6.088653e+000 1.100000e+002
    endloop
  endfacet
  facet normal 0.000000e+000 0.000000e+000 1.000000e+000
    outer loop
      vertex   1.945000e+001 -2.381938e-015 1.100000e+002
      vertex   1.770000e+001 -6.000000e+000 1.100000e+002
      vertex   2.195000e+001 -7.500000e+000 1.100000e+002
    endloop
  endfacet
  facet normal 0.000000e+000 0.000000e+000 1.000000e+000
    outer loop
      vertex   1.945000e+001 -2.381938e-015 1.100000e+002
      vertex   1.770000e+001 -2.220446e-015 1.100000e+002
      vertex   1.770000e+001 -6.000000e+000 1.100000e+002
    endloop
  endfacet
  facet normal 0.000000e+000 0.000000e+000 1.000000e+000
    outer loop
      vertex   1.770000e+001 -6.000000e+000 1.100000e+002
      vertex   -1.770000e+001 -6.000000e+000 1.100000e+002
      vertex   2.195000e+001 -7.500000e+000 1.100000e+002
    endloop
  endfacet
  facet normal 0.000000e+000 0.000000e+000 1.000000e+000
    outer loop
      vertex   2.195000e+001 -7.500000e+000 1.100000e+002
      vertex   -1.770000e+001 -6.000000e+000 1.100000e+002
      vertex   -2.195000e+001 -7.500000e+000 1.100000e+002
    endloop
  endfacet
  facet normal 0.000000e+000 -0.000000e+000 1.000000e+000
    outer loop
      vertex   -2.195000e+001 -7.500000e+000 1.100000e+002
      vertex   -1.770000e+001 -6.000000e+000 1.100000e+002
      vertex   -1.945000e+001 -2.381938e-015 1.100000e+002
    endloop
  endfacet
  facet normal -0.000000e+000 0.000000e+000 1.000000e+000
    outer loop
      vertex   -2.195000e+001 6.088653e+000 1.100000e+002
      vertex   -1.945000e+001 -2.381938e-015 1.100000e+002
      vertex   -1.945000e+001 1.900000e+000 1.100000e+002
    endloop
  endfacet
  facet normal 0.000000e+000 0.000000e+000 1.000000e+000
    outer loop
      vertex   -1.770000e+001 3.650000e+000 1.100000e+002
      vertex   -2.195000e+001 6.088653e+000 1.100000e+002
      vertex   -1.945000e+001 1.900000e+000 1.100000e+002
    endloop
  endfacet
  facet normal 0.000000e+000 0.000000e+000 1.000000e+000
    outer loop
      vertex   -1.770000e+001 3.650000e+000 1.100000e+002
      vertex   -1.770000e+001 6.088653e+000 1.100000e+002
      vertex   -2.195000e+001 6.088653e+000 1.100000e+002
    endloop
  endfacet
  facet normal 0.000000e+000 -0.000000e+000 1.000000e+000
    outer loop
      vertex   -1.770000e+001 -6.000000e+000 1.100000e+002
      vertex   -1.770000e+001 -2.220446e-015 1.100000e+002
      vertex   -1.945000e+001 -2.381938e-015 1.100000e+002
    endloop
  endfacet
  facet normal 0.000000e+000 -0.000000e+000 1.000000e+000
    outer loop
      vertex   -2.195000e+001 -7.500000e+000 1.100000e+002
      vertex   -1.945000e+001 -2.381938e-015 1.100000e+002
      vertex   -2.195000e+001 6.088653e+000 1.100000e+002
    endloop
  endfacet
  facet normal -2.089832e-016 1.000000e+000 0.000000e+000
    outer loop
      vertex   -1.770000e+001 6.088653e+000 1.100000e+002
      vertex   -1.770000e+001 6.088653e+000 0.000000e+000
      vertex   -2.195000e+001 6.088653e+000 1.100000e+002
    endloop
  endfacet
  facet normal -2.089832e-016 1.000000e+000 0.000000e+000
    outer loop
      vertex   -2.195000e+001 6.088653e+000 1.100000e+002
      vertex   -1.770000e+001 6.088653e+000 0.000000e+000
      vertex   -2.195000e+001 6.088653e+000 0.000000e+000
    endloop
  endfacet
  facet normal -1.000000e+000 -0.000000e+000 -0.000000e+000
    outer loop
      vertex   1.945000e+001 1.900000e+000 1.100000e+002
      vertex   1.945000e+001 1.900000e+000 0.000000e+000
      vertex   1.945000e+001 -2.381938e-015 1.100000e+002
    endloop
  endfacet
  facet normal -1.000000e+000 -0.000000e+000 -0.000000e+000
    outer loop
      vertex   1.945000e+001 -2.381938e-015 1.100000e+002
      vertex   1.945000e+001 1.900000e+000 0.000000e+000
      vertex   1.945000e+001 -2.381938e-015 0.000000e+000
    endloop
  endfacet
  facet normal 9.228113e-017 1.000000e+000 -0.000000e+000
    outer loop
      vertex   1.770000e+001 -2.220446e-015 0.000000e+000
      vertex   1.770000e+001 -2.220446e-015 1.100000e+002
      vertex   1.945000e+001 -2.381938e-015 0.000000e+000
    endloop
  endfacet
  facet normal 9.228113e-017 1.000000e+000 0.000000e+000
    outer loop
      vertex   1.945000e+001 -2.381938e-015 0.000000e+000
      vertex   1.770000e+001 -2.220446e-015 1.100000e+002
      vertex   1.945000e+001 -2.381938e-015 1.100000e+002
    endloop
  endfacet
  facet normal 1.000000e+000 -0.000000e+000 0.000000e+000
    outer loop
      vertex   -1.945000e+001 -2.381938e-015 1.100000e+002
      vertex   -1.945000e+001 -2.381938e-015 0.000000e+000
      vertex   -1.945000e+001 1.900000e+000 1.100000e+002
    endloop
  endfacet
  facet normal 1.000000e+000 -0.000000e+000 0.000000e+000
    outer loop
      vertex   -1.945000e+001 1.900000e+000 1.100000e+002
      vertex   -1.945000e+001 -2.381938e-015 0.000000e+000
      vertex   -1.945000e+001 1.900000e+000 0.000000e+000
    endloop
  endfacet
  facet normal 1.000000e+000 -0.000000e+000 0.000000e+000
    outer loop
      vertex   2.195000e+001 -7.500000e+000 1.100000e+002
      vertex   2.195000e+001 -7.500000e+000 0.000000e+000
      vertex   2.195000e+001 6.088653e+000 1.100000e+002
    endloop
  endfacet
  facet normal 1.000000e+000 -0.000000e+000 0.000000e+000
    outer loop
      vertex   2.195000e+001 6.088653e+000 1.100000e+002
      vertex   2.195000e+001 -7.500000e+000 0.000000e+000
      vertex   2.195000e+001 6.088653e+000 0.000000e+000
    endloop
  endfacet
  facet normal 0.000000e+000 -1.000000e+000 0.000000e+000
    outer loop
      vertex   -2.195000e+001 -7.500000e+000 1.100000e+002
      vertex   -2.195000e+001 -7.500000e+000 0.000000e+000
      vertex   2.195000e+001 -7.500000e+000 1.100000e+002
    endloop
  endfacet
  facet normal 0.000000e+000 -1.000000e+000 -0.000000e+000
    outer loop
      vertex   2.195000e+001 -7.500000e+000 1.100000e+002
      vertex   -2.195000e+001 -7.500000e+000 0.000000e+000
      vertex   2.195000e+001 -7.500000e+000 0.000000e+000
    endloop
  endfacet
  facet normal -1.000000e+000 -0.000000e+000 -0.000000e+000
    outer loop
      vertex   -2.195000e+001 6.088653e+000 1.100000e+002
      vertex   -2.195000e+001 6.088653e+000 0.000000e+000
      vertex   -2.195000e+001 -7.500000e+000 1.100000e+002
    endloop
  endfacet
  facet normal -1.000000e+000 -0.000000e+000 -0.000000e+000
    outer loop
      vertex   -2.195000e+001 -7.500000e+000 1.100000e+002
      vertex   -2.195000e+001 6.088653e+000 0.000000e+000
      vertex   -2.195000e+001 -7.500000e+000 0.000000e+000
    endloop
  endfacet
  facet normal -0.000000e+000 1.000000e+000 0.000000e+000
    outer loop
      vertex   1.770000e+001 6.088653e+000 0.000000e+000
      vertex   1.770000e+001 6.088653e+000 1.100000e+002
      vertex   2.195000e+001 6.088653e+000 0.000000e+000
    endloop
  endfacet
  facet normal 0.000000e+000 1.000000e+000 -0.000000e+000
    outer loop
      vertex   2.195000e+001 6.088653e+000 0.000000e+000
      vertex   1.770000e+001 6.088653e+000 1.100000e+002
      vertex   2.195000e+001 6.088653e+000 1.100000e+002
    endloop
  endfacet
endsolid
